<svg width="27" height="27" viewBox="0 0 27 27" fill="none" xmlns="http://www.w3.org/2000/svg">
<g opacity="0.5">
<path d="M13.3763 25.2661C20.0038 25.2661 25.3763 19.8935 25.3763 13.2661C25.3763 6.6387 20.0038 1.26611 13.3763 1.26611C6.74893 1.26611 1.37634 6.6387 1.37634 13.2661C1.37634 19.8935 6.74893 25.2661 13.3763 25.2661Z" stroke="black" stroke-width="1.5" stroke-linecap="round" stroke-linejoin="round"/>
<path d="M12.3762 12.2661H13.3763L13.3762 19.2661H14.3762" stroke="black" stroke-width="1.5" stroke-linecap="round" stroke-linejoin="round"/>
<path d="M13.3762 9.01611C14.0666 9.01611 14.6262 8.45647 14.6262 7.76611C14.6262 7.07576 14.0666 6.51611 13.3762 6.51611C12.6859 6.51611 12.1262 7.07576 12.1262 7.76611C12.1262 8.45647 12.6859 9.01611 13.3762 9.01611Z" fill="black"/>
</g>
</svg>
